<?xml version="1.0" encoding="UTF-8" standalone="no"?>
<!DOCTYPE svg PUBLIC "-//W3C//DTD SVG 1.1//EN"
 "http://www.w3.org/Graphics/SVG/1.1/DTD/svg11.dtd">
<!-- Generated by graphviz version 7.0.4 (20221203.1631)
 -->
<!-- Title: dependency&#45;cruiser output Pages: 1 -->
<svg width="231pt" height="56pt"
 viewBox="0.00 0.00 231.00 56.00" xmlns="http://www.w3.org/2000/svg" xmlns:xlink="http://www.w3.org/1999/xlink">
<g id="graph0" class="graph" transform="scale(1 1) rotate(0) translate(4 52)">
<title>dependency&#45;cruiser output</title>
<polygon fill="white" stroke="none" points="-4,4 -4,-52 227,-52 227,4 -4,4"/>
<!-- Cache.js -->
<g id="node1" class="node">
<title>Cache.js</title>
<g id="a_node1"><a xlink:href="Cache.js" xlink:title="Cache.js">
<path fill="#ffffcc" stroke="black" d="M217,-48C217,-48 175,-48 175,-48 172,-48 169,-45 169,-42 169,-42 169,-36 169,-36 169,-33 172,-30 175,-30 175,-30 217,-30 217,-30 220,-30 223,-33 223,-36 223,-36 223,-42 223,-42 223,-45 220,-48 217,-48"/>
<text text-anchor="middle" x="196" y="-36.8" font-family="Helvetica,sans-Serif" font-size="9.00">Cache.js</text>
</a>
</g>
</g>
<!-- CacheManager.js -->
<g id="node2" class="node">
<title>CacheManager.js</title>
<g id="a_node2"><a xlink:href="CacheManager.js" xlink:title="CacheManager.js">
<path fill="#ffffcc" stroke="black" d="M150,-48C150,-48 73,-48 73,-48 70,-48 67,-45 67,-42 67,-42 67,-36 67,-36 67,-33 70,-30 73,-30 73,-30 150,-30 150,-30 153,-30 156,-33 156,-36 156,-36 156,-42 156,-42 156,-45 153,-48 150,-48"/>
<text text-anchor="middle" x="111.5" y="-36.8" font-family="Helvetica,sans-Serif" font-size="9.00">CacheManager.js</text>
</a>
</g>
</g>
<!-- CacheManager.js&#45;&gt;Cache.js -->
<g id="edge1" class="edge">
<title>CacheManager.js&#45;&gt;Cache.js</title>
<path fill="none" stroke="#000000" stroke-width="2" stroke-opacity="0.200000" d="M156.17,-39C157.52,-39 158.87,-39 160.21,-39"/>
<polygon fill="#000000" fill-opacity="0.200000" stroke="#000000" stroke-width="2" stroke-opacity="0.200000" points="159.83,-41.1 165.83,-39 159.83,-36.9 159.83,-41.1"/>
</g>
<!-- Repository.js -->
<g id="node3" class="node">
<title>Repository.js</title>
<g id="a_node3"><a xlink:href="Repository.js" xlink:title="Repository.js">
<path fill="#ffffcc" stroke="black" d="M141,-18C141,-18 82,-18 82,-18 79,-18 76,-15 76,-12 76,-12 76,-6 76,-6 76,-3 79,0 82,0 82,0 141,0 141,0 144,0 147,-3 147,-6 147,-6 147,-12 147,-12 147,-15 144,-18 141,-18"/>
<text text-anchor="middle" x="111.5" y="-6.8" font-family="Helvetica,sans-Serif" font-size="9.00">Repository.js</text>
</a>
</g>
</g>
<!-- User.js -->
<g id="node4" class="node">
<title>User.js</title>
<g id="a_node4"><a xlink:href="User.js" xlink:title="User.js">
<path fill="#ffffcc" stroke="black" d="M217,-18C217,-18 175,-18 175,-18 172,-18 169,-15 169,-12 169,-12 169,-6 169,-6 169,-3 172,0 175,0 175,0 217,0 217,0 220,0 223,-3 223,-6 223,-6 223,-12 223,-12 223,-15 220,-18 217,-18"/>
<text text-anchor="middle" x="196" y="-6.8" font-family="Helvetica,sans-Serif" font-size="9.00">User.js</text>
</a>
</g>
</g>
<!-- Repository.js&#45;&gt;User.js -->
<g id="edge2" class="edge">
<title>Repository.js&#45;&gt;User.js</title>
<path fill="none" stroke="#000000" stroke-width="2" stroke-opacity="0.200000" d="M147.49,-9C151.65,-9 155.9,-9 160.07,-9"/>
<polygon fill="#000000" fill-opacity="0.200000" stroke="#000000" stroke-width="2" stroke-opacity="0.200000" points="159.94,-11.1 165.94,-9 159.94,-6.9 159.94,-11.1"/>
</g>
<!-- index.js -->
<g id="node5" class="node">
<title>index.js</title>
<g id="a_node5"><a xlink:href="index.js" xlink:title="index.js">
<path fill="#ffffcc" stroke="black" d="M48,-33C48,-33 6,-33 6,-33 3,-33 0,-30 0,-27 0,-27 0,-21 0,-21 0,-18 3,-15 6,-15 6,-15 48,-15 48,-15 51,-15 54,-18 54,-21 54,-21 54,-27 54,-27 54,-30 51,-33 48,-33"/>
<text text-anchor="middle" x="27" y="-21.8" font-family="Helvetica,sans-Serif" font-size="9.00">index.js</text>
</a>
</g>
</g>
<!-- index.js&#45;&gt;CacheManager.js -->
<g id="edge3" class="edge">
<title>index.js&#45;&gt;CacheManager.js</title>
<path fill="none" stroke="#000000" stroke-width="2" stroke-opacity="0.200000" d="M54.1,-28.75C55.37,-28.98 56.66,-29.21 57.97,-29.45"/>
<polygon fill="#000000" fill-opacity="0.200000" stroke="#000000" stroke-width="2" stroke-opacity="0.200000" points="57.52,-31.5 63.8,-30.51 58.27,-27.37 57.52,-31.5"/>
</g>
<!-- index.js&#45;&gt;Repository.js -->
<g id="edge4" class="edge">
<title>index.js&#45;&gt;Repository.js</title>
<path fill="none" stroke="#000000" stroke-width="2" stroke-opacity="0.200000" d="M54.1,-19.25C58.14,-18.52 62.4,-17.75 66.7,-16.96"/>
<polygon fill="#000000" fill-opacity="0.200000" stroke="#000000" stroke-width="2" stroke-opacity="0.200000" points="67.01,-19.04 72.53,-15.9 66.26,-14.91 67.01,-19.04"/>
</g>
</g>
</svg>
